<?xml version="1.0" encoding="UTF-8"?>
<svg id="finals" xmlns="http://www.w3.org/2000/svg" viewBox="0 0 501.74 300">
  <defs>
    <style>
      .cls-1 {
        fill: #fff;
        stroke-width: 0px;
      }
    </style>
  </defs>
  <path class="cls-1" d="M428.88,202.98v-125.62h-32.02v117.72c-3.42.43-13.02.64-19.43.64-7.04,0-17.51-.21-19.85-.64v-117.72h-41.63s10.03,7.04,10.03,17.72v126.9l1.92.64c.64.21,17.51,4.7,49.53,4.7,29.03,0,55.51-5.76,55.72-5.98l5.55-1.07s-9.82-2.35-9.82-17.29ZM415.86,212.38s-9.82,2.77-38.64,2.77c-22.63,0-39.07-2.77-39.07-2.77v-122.85h6.83v116.65s15.16,2.13,32.24,2.13c24.55,0,31.81-2.13,31.81-2.13v-116.65h6.83v122.85Z"/>
  <path class="cls-1" d="M130.02,72.33c-33.52,0-59.99,6.19-60.2,6.19l-5.34,1.28,4.48,3.2c4.91,3.63,6.83,7.26,7.05,13.02,0,0-.21,108.66,0,114.42,0,5.34-2.14,8.54-7.05,12.38l-6.19,4.48h58.28l-6.19-4.48s-6.83-5.76-6.62-12.38v-38.63h61.48c2.13.21,5.34,1.5,5.34,1.5l4.06,2.56v-39.71l-3.84,2.35s-2.13,1.28-5.12,1.28h-61.91v-35.01s12.59-1.71,19.43-1.71,24.98,1.92,33.52,5.12c9.82,3.84,17.93,11.1,17.93,11.1v-41.63l-2.13-.43c-.21,0-20.28-4.91-46.97-4.91ZM168.87,98.38s-5.55-2.78-14.73-4.27c-9.39-1.71-13.24-2.13-26.26-2.35-17.93-.43-32.02,2.14-32.02,2.14v58.07h71.09v7.47h-71.09v56.78h-7.68l.21-128.73s15.16-3.42,39.28-3.42c13.02,0,26.26.85,41.2,3.42v10.89Z"/>
  <path class="cls-1" d="M304.11,204.05v-34.58c0-7.26-4.91-9.39-4.91-9.39l-66.39-40.99v-14.52c4.06-.64,7.9-1.28,24.76-.64,10.89.43,18.57,1.71,25.62,4.06,11.32,3.63,15.58,7.05,15.58,7.05l5.34,4.48-.21-42.06-2.56-.43c-.85-.21-24.55-4.7-49.74-4.7-31.81,0-54.87,5.76-55.93,5.98l-6.4,1.49,5.34,4.06c4.27,3.2,6.19,6.62,6.4,11.74l-.21,29.67c0,9.39,7.04,13.24,7.04,13.24l64.26,40.14v16.44c-3.84.64-9.18,1.28-25.83.64-11.1-.43-17.29-1.92-24.55-4.06-11.74-3.2-20.92-11.53-20.92-11.53v41.84l2.56.64c1.07.21,23.48,4.7,48.89,4.7,31.81,0,55.93-5.76,57-5.98l6.62-1.5-5.55-4.06c-4.27-3.2-5.98-6.62-6.19-11.74ZM291.72,212.16s-14.52,3.2-37.15,3.2c-12.6,0-27.11-.85-41.2-3.2v-10.25s5.55,2.56,14.09,4.06c8.97,1.49,14.52,1.92,26.69,2.13,17.08.43,30.32-1.92,30.32-1.92v-27.97c0-6.19-6.19-9.61-6.19-9.61l-58.92-36.93s-5.98-3.63-5.98-10.46v-33.73s13.24-3.2,35.87-3.2c12.38,0,27.97.85,42.27,3.2v10.25s-5.34-2.56-13.88-4.06c-8.97-1.71-15.8-1.92-28.18-2.14-16.86-.43-29.03,1.92-29.03,1.92v25.4c0,5.76,5.76,8.97,5.76,8.97l59.99,37.15s5.55,2.99,5.55,9.61v37.57Z"/>
</svg>